<mxfile host="app.diagrams.net" modified="2023-12-04T16:33:18.085Z" agent="Mozilla/5.0 (X11; Linux x86_64; rv:109.0) Gecko/20100101 Firefox/114.0" version="22.1.5" etag="OX3gN0vMgNhdrg4qx3DF" type="github">
  <diagram name="PÃ¡gina-1" id="A25ngZA8ety3SwuG1zTF">
    <mxGraphModel>
      <root>
        <mxCell id="0" />
        <mxCell id="1" parent="0" />
      </root>
    </mxGraphModel>
  </diagram>
</mxfile>
